<?xml version="1.0" encoding="utf-8"?>
<!-- Generator: Adobe Illustrator 27.0.1, SVG Export Plug-In . SVG Version: 6.00 Build 0)  -->
<svg version="1.1" id="レイヤー_1" xmlns="http://www.w3.org/2000/svg" xmlns:xlink="http://www.w3.org/1999/xlink" x="0px"
	 y="0px" viewBox="0 0 128 128" style="enable-background:new 0 0 128 128;" xml:space="preserve">
<style type="text/css">
	.st0{fill:#003384;}
</style>
<path class="st0" d="M116,26.8L116,26.8L116,26.8C116,26.7,116,26.7,116,26.8c-7.9-11-19.1-19.4-32.3-23.7l0,0C77.5,1.1,70.9,0,64,0
	S50.5,1.1,44.2,3.1l0,0C31.1,7.4,19.8,15.8,12,26.8l0,0C4.5,37.2,0,50,0,63.9l0,0V64c0,14.3,4.7,27.5,12.6,38.1
	c7.7,10.4,18.6,18.4,31.2,22.6l0,0h0.1h-0.1C50.2,126.9,57,128,64,128s13.8-1.1,20.2-3.3c12.6-4.2,23.5-12.2,31.2-22.6l0,0
	C123.3,91.5,128,78.3,128,64v-0.1l0,0C128,50.1,123.6,37.2,116,26.8 M66.2,19L78,10.4c1,0.3,2.1,0.5,3.1,0.9l0,0
	C92.5,15,102.2,22.2,109,31.8l0,0c0.6,0.9,1.2,1.8,1.8,2.7l-4.5,13.7L81,56.5L66.2,45.7V19z M19,31.8L19,31.8
	c6.8-9.5,16.6-16.8,27.9-20.5l0,0c1-0.3,2.1-0.6,3.1-0.9L61.9,19v26.7L47,56.5l-25.4-8.3l-4.5-13.7C17.7,33.6,18.3,32.6,19,31.8
	 M21.6,99.6c-0.7-0.8-1.4-1.7-2.1-2.6l0,0C12.7,87.8,8.6,76.4,8.6,64v-0.1c0-1.1,0.1-2.2,0.1-3.2l11.6-8.4l25.4,8.3l5.7,17.3
	L35.7,99.6H21.6z M84.5,115.4c-1,0.4-2,0.8-3,1.1l0,0c-5.5,1.8-11.3,2.8-17.4,2.8s-12-1-17.4-2.8l0,0c-1-0.3-2-0.7-3-1.1l-4.3-13.3
	l15.7-21.6h18.2l15.6,21.9L84.5,115.4z M119.4,64c0,12.4-4,23.8-10.9,33l0,0c-0.7,0.9-1.4,1.7-2.1,2.6H92L76.6,78l5.7-17.4l25.4-8.3
	l11.6,8.4C119.3,61.8,119.4,62.8,119.4,64L119.4,64z"/>
<path d="M84.2,124.7L84.2,124.7L84.2,124.7L84.2,124.7z"/>
</svg>
