<?xml version="1.0" encoding="utf-8"?>
<!-- Generator: Adobe Illustrator 27.0.1, SVG Export Plug-In . SVG Version: 6.00 Build 0)  -->
<svg version="1.1" id="レイヤー_1" xmlns="http://www.w3.org/2000/svg" xmlns:xlink="http://www.w3.org/1999/xlink" x="0px"
	 y="0px" viewBox="0 0 128 69.4" style="enable-background:new 0 0 128 69.4;" xml:space="preserve">
<style type="text/css">
	.st0{fill:#CE462A;}
</style>
<path class="st0" d="M77.3,25.8H8.6v12.3h14c-1.6,3-2.5,6.4-2.5,10c0,11.8,9.6,21.4,21.4,21.4H68c11.8,0,21.4-9.6,21.4-21.4
	c0-3.2-0.7-6.3-2-9c21,4.2,28.4,20.6,28.4,20.6V4.3C115.8,4.3,106.1,25.8,77.3,25.8 M76,56.1c-2.1,2.1-4.9,3.3-8,3.3H41.5
	c-3.1,0-5.9-1.3-8-3.3c-2.1-2.1-3.3-4.9-3.3-8s1.3-5.9,3.3-8c0.8-0.8,1.8-1.4,2.8-2h37c1,0.5,2,1.2,2.8,2c2.1,2.1,3.3,4.9,3.3,8
	C79.3,51.2,78.1,54,76,56.1"/>
<path class="st0" d="M123.9,0c-2.2,0-4.1,1.8-4.1,4.1v55.8c0,2.2,1.8,4.1,4.1,4.1h4.1V0H123.9z"/>
<rect y="22.6" class="st0" width="5.7" height="18.7"/>
<path class="st0" d="M38.7,22.9H43c1.4,0,2.5-1.1,2.5-2.5s-1.1-2.5-2.5-2.5h-4.3c-1.4,0-2.5,1.1-2.5,2.5
	C36.1,21.7,37.3,22.9,38.7,22.9"/>
<path class="st0" d="M51.9,22.9h4.3c1.4,0,2.5-1.1,2.5-2.5s-1.1-2.5-2.5-2.5h-4.3c-1.4,0-2.5,1.1-2.5,2.5
	C49.4,21.7,50.6,22.9,51.9,22.9"/>
<path class="st0" d="M65.2,22.9h4.3c1.4,0,2.5-1.1,2.5-2.5s-1.1-2.5-2.5-2.5h-4.3c-1.4,0-2.5,1.1-2.5,2.5
	C62.7,21.7,63.8,22.9,65.2,22.9"/>
</svg>
