<?xml version="1.0" encoding="utf-8"?>
<!-- Generator: Adobe Illustrator 27.0.1, SVG Export Plug-In . SVG Version: 6.00 Build 0)  -->
<svg version="1.1" id="レイヤー_1" xmlns="http://www.w3.org/2000/svg" xmlns:xlink="http://www.w3.org/1999/xlink" x="0px"
	 y="0px" viewBox="0 0 128 98.7" style="enable-background:new 0 0 128 98.7;" xml:space="preserve">
<style type="text/css">
	.st0{fill:#DDC72C;}
</style>
<path class="st0" d="M0,30.3v62.2c0,3.4,2.8,6.2,6.2,6.2h12.7V24.1H6.2C2.8,24.1,0,26.9,0,30.3"/>
<path class="st0" d="M121.8,24.1h-12.7v74.6h12.7c3.4,0,6.2-2.8,6.2-6.2V30.3C128,26.9,125.2,24.1,121.8,24.1"/>
<path class="st0" d="M89.4,5.7c0-3.2-2.6-5.7-5.7-5.7H44.3c-3.2,0-5.7,2.6-5.7,5.7v18.4H31v74.6h66V24.1h-7.5L89.4,5.7L89.4,5.7z
	 M49.4,10.8h29.3v13.3H49.4V10.8z"/>
</svg>
