<?xml version="1.0" encoding="utf-8"?>
<!-- Generator: Adobe Illustrator 27.0.1, SVG Export Plug-In . SVG Version: 6.00 Build 0)  -->
<svg version="1.1" id="レイヤー_1" xmlns="http://www.w3.org/2000/svg" xmlns:xlink="http://www.w3.org/1999/xlink" x="0px"
	 y="0px" viewBox="0 0 101.1 129.3" style="enable-background:new 0 0 101.1 129.3;" xml:space="preserve">
<style type="text/css">
	.st0{clip-path:url(#SVGID_00000144297153139181656850000009488634100816743584_);fill:#CE462A;}
	.st1{clip-path:url(#SVGID_00000132776954524407916290000009528900741659294653_);fill:#CE462A;}
	.st2{clip-path:url(#SVGID_00000134966685201867657980000002971182623080009401_);fill:#CE462A;}
	.st3{clip-path:url(#SVGID_00000168118639577089283680000015900350624424818818_);fill:#003384;}
	.st4{clip-path:url(#SVGID_00000031205988235175224910000009365420863786399905_);fill:#003384;}
	.st5{clip-path:url(#SVGID_00000065760908440579137320000014692520585169943714_);fill:#003384;}
	.st6{clip-path:url(#SVGID_00000053521419403370305690000006278342902858627767_);fill:#003384;}
</style>
<g>
	<g>
		<defs>
			<rect id="SVGID_1_" width="101.1" height="129.3"/>
		</defs>
		<clipPath id="SVGID_00000136406510077460441040000007699472697607591051_">
			<use xlink:href="#SVGID_1_"  style="overflow:visible;"/>
		</clipPath>
		<path style="clip-path:url(#SVGID_00000136406510077460441040000007699472697607591051_);fill:#CE462A;" d="M100.5,40.7L75,40.4
			l-25.5,0.3l0.4-1.3c0.1-0.2,5.7-18.3,8.6-25.8C60.9,7.3,65,0,75,0c9.9,0,13.9,6.9,16.5,13.6c2.9,7.5,8.5,25.6,8.6,25.8L100.5,40.7
			z M74.9,38.4l22.9,0.3c-1.3-4.3-5.7-18.1-8.2-24.4C87.1,7.9,83.6,2,75,2c-8.7,0-12.3,6.2-14.7,12.3c-2.5,6.3-6.8,20.1-8.1,24.4
			L74.9,38.4z"/>
	</g>
	<g>
		<defs>
			<rect id="SVGID_00000121990327778596091140000000592391832597349785_" width="101.1" height="129.3"/>
		</defs>
		<clipPath id="SVGID_00000132058409310238014480000016591796951371607969_">
			<use xlink:href="#SVGID_00000121990327778596091140000000592391832597349785_"  style="overflow:visible;"/>
		</clipPath>
		<path style="clip-path:url(#SVGID_00000132058409310238014480000016591796951371607969_);fill:#CE462A;" d="M84.7,13.4
			c0,5.4-4.4,9.7-9.7,9.7c-5.4,0-9.7-4.4-9.7-9.7c0-5.4,4.4-9.7,9.7-9.7C80.3,3.6,84.7,8,84.7,13.4"/>
	</g>
	<g>
		<defs>
			<rect id="SVGID_00000116237837559601604480000011594204455693666953_" width="101.1" height="129.3"/>
		</defs>
		<clipPath id="SVGID_00000075134672392226116200000005405631038114033576_">
			<use xlink:href="#SVGID_00000116237837559601604480000011594204455693666953_"  style="overflow:visible;"/>
		</clipPath>
		<path style="clip-path:url(#SVGID_00000075134672392226116200000005405631038114033576_);fill:#CE462A;" d="M88.8,66.4l7.9-2.7
			c2.1-0.8,3.2-2.9,2.9-5.1l0,0L96.1,41c-2.2-12.1-14.3-14.8-21.2-14.8s-19,2.7-21.2,14.8l-3.6,17.7l0,0c-0.3,2.1,0.8,4.3,2.9,5.1
			l7.9,2.7L48.8,117H63l0.1,7.4c0,2.7,2.2,4.9,4.9,4.9c2.7,0,4.9-2.2,4.9-4.9l0.3-7.4h1.6h1.6l0.3,7.4c0,2.7,2.2,4.9,4.9,4.9
			c2.7,0,4.9-2.2,4.9-4.9l0.1-7.4h14.2L88.8,66.4z M87.9,49.5l1.8,7.2l-1.9,0.8L87.9,49.5z M74.9,44.6h11l-0.2,13.8L75.5,63
			c-0.2,0.1-0.4,0.2-0.5,0.3c-0.2-0.1-0.3-0.2-0.5-0.3l-10.3-4.5L64,44.6H74.9z M60.2,56.7l1.8-7.2l0.1,8.1L60.2,56.7z M74.9,114.5
			H51.6L63,67.1l8.7,3c1.1,0.4,2.3,0.3,3.3-0.2c1,0.6,2.1,0.7,3.3,0.2l8.7-3l11.4,47.4H74.9z"/>
	</g>
	<g>
		<defs>
			<rect id="SVGID_00000170994024557101685980000004031690114879097783_" width="101.1" height="129.3"/>
		</defs>
		<clipPath id="SVGID_00000178893711904974378570000017851852532647357097_">
			<use xlink:href="#SVGID_00000170994024557101685980000004031690114879097783_"  style="overflow:visible;"/>
		</clipPath>
		<path style="clip-path:url(#SVGID_00000178893711904974378570000017851852532647357097_);fill:#003384;" d="M32.9,10.4
			c0,5.4-4.4,9.7-9.7,9.7c-5.4,0-9.7-4.4-9.7-9.7c0-5.4,4.4-9.7,9.7-9.7C28.5,0.7,32.9,5.1,32.9,10.4"/>
	</g>
	<g>
		<defs>
			<rect id="SVGID_00000093883263399132276240000007396742350238229138_" width="101.1" height="129.3"/>
		</defs>
		<clipPath id="SVGID_00000004508582043418244090000005392076383362969780_">
			<use xlink:href="#SVGID_00000093883263399132276240000007396742350238229138_"  style="overflow:visible;"/>
		</clipPath>
		
			<rect x="21" y="24.2" style="clip-path:url(#SVGID_00000004508582043418244090000005392076383362969780_);fill:#003384;" width="4.4" height="2.2"/>
	</g>
	<g>
		<defs>
			<rect id="SVGID_00000071546843265391604880000001141840976753789099_" width="101.1" height="129.3"/>
		</defs>
		<clipPath id="SVGID_00000121974765078599015910000005920611933983880853_">
			<use xlink:href="#SVGID_00000071546843265391604880000001141840976753789099_"  style="overflow:visible;"/>
		</clipPath>
		<polygon style="clip-path:url(#SVGID_00000121974765078599015910000005920611933983880853_);fill:#003384;" points="25.4,34.6 
			25.4,27.9 21,27.9 21,34.6 23.2,38.4 		"/>
	</g>
	<g>
		<defs>
			<rect id="SVGID_00000062871921609407993730000013224623461038610574_" width="101.1" height="129.3"/>
		</defs>
		<clipPath id="SVGID_00000088122567112498999040000012582728266097043599_">
			<use xlink:href="#SVGID_00000062871921609407993730000013224623461038610574_"  style="overflow:visible;"/>
		</clipPath>
		<path style="clip-path:url(#SVGID_00000088122567112498999040000012582728266097043599_);fill:#003384;" d="M34,24.6L23.2,43.2
			L12.3,24.6C6,26,0,29.4,0,37.6v32.1c-0.1,2.1,1.5,3.9,3.6,4s3.9-1.5,4-3.6l1.8-19.5l2,72.5c0,2.7,2.2,4.9,4.9,4.9s4.9-2.2,4.9-4.9
			l2-44.6l2,44.6c0,2.7,2.2,4.9,4.9,4.9s4.9-2.2,4.9-4.9l2-72.5L38.7,70c0.1,2.1,1.9,3.7,4,3.6s3.7-1.9,3.6-4v-32
			C46.3,29.4,40.3,26,34,24.6 M23.2,58.6c-0.7,0-1.2-0.6-1.2-1.2c0-0.7,0.6-1.2,1.2-1.2c0.7,0,1.2,0.6,1.2,1.2
			C24.4,58.1,23.8,58.6,23.2,58.6 M23.2,50.8c-0.7,0-1.2-0.6-1.2-1.2c0-0.7,0.6-1.2,1.2-1.2c0.7,0,1.2,0.6,1.2,1.2
			C24.4,50.2,23.8,50.8,23.2,50.8 M29.3,39.5l0.2-1.5l4.7-0.8l0.4,2.4h-5.3V39.5z"/>
	</g>
</g>
</svg>
