<?xml version="1.0" encoding="utf-8"?>
<!-- Generator: Adobe Illustrator 27.0.1, SVG Export Plug-In . SVG Version: 6.00 Build 0)  -->
<svg version="1.1" id="レイヤー_1" xmlns="http://www.w3.org/2000/svg" xmlns:xlink="http://www.w3.org/1999/xlink" x="0px"
	 y="0px" viewBox="0 0 106.1 120.6" style="enable-background:new 0 0 106.1 120.6;" xml:space="preserve">
<style type="text/css">
	.st0{clip-path:url(#SVGID_00000066499509145843389350000011098013930460439731_);fill:#CE462A;}
	.st1{clip-path:url(#SVGID_00000183965471365075857390000001315385109779808185_);fill:#CE462A;}
	.st2{clip-path:url(#SVGID_00000073717091904995533810000003200838365545817019_);fill:#2996C1;}
	.st3{clip-path:url(#SVGID_00000089574651783775566250000013418892804902313115_);fill:#2996C1;}
</style>
<g>
	<g>
		<defs>
			<rect id="SVGID_1_" x="51.8" width="54.2" height="120.6"/>
		</defs>
		<clipPath id="SVGID_00000022556526115794402320000001464788119282703234_">
			<use xlink:href="#SVGID_1_"  style="overflow:visible;"/>
		</clipPath>
		<path style="clip-path:url(#SVGID_00000022556526115794402320000001464788119282703234_);fill:#CE462A;" d="M79,20.1
			c5.6,0,10.1-4.5,10.1-10.1C89,4.5,84.5,0,79,0c-5.6,0-10.1,4.5-10.1,10.1C68.9,15.6,73.4,20.1,79,20.1"/>
	</g>
	<g>
		<defs>
			<rect id="SVGID_00000147219710484133250240000012206691162382440104_" x="51.8" width="54.2" height="120.6"/>
		</defs>
		<clipPath id="SVGID_00000059290121121824326460000016396315238749044146_">
			<use xlink:href="#SVGID_00000147219710484133250240000012206691162382440104_"  style="overflow:visible;"/>
		</clipPath>
		<path style="clip-path:url(#SVGID_00000059290121121824326460000016396315238749044146_);fill:#CE462A;" d="M106,60.7l-7.4-26.3
			C96.5,27.6,92,23,86.8,23H79h-7.9c-5.1,0-9.7,4.6-11.7,11.4L52,60.7c-0.5,2.2,0.8,4.5,3,5s4.4-0.7,5-3l7.4-26.2h2.2L56.7,82.1
			h12.1v33.8c0,2.6,2.1,4.7,4.7,4.7s4.7-2.1,4.7-4.7V82.1h2.6v33.8c0,2.6,2.1,4.7,4.7,4.7s4.7-2.1,4.7-4.7V82.1h11.2l-13-45.5h2.2
			L98,62.8c0.5,2.2,2.8,3.5,5,3C105.2,65.2,106.5,62.9,106,60.7"/>
	</g>
</g>
<g>
	<g>
		<defs>
			<rect id="SVGID_00000046309542278677133530000015225170724740148608_" width="46.8" height="120.6"/>
		</defs>
		<clipPath id="SVGID_00000057835215436251534590000011435982415509432454_">
			<use xlink:href="#SVGID_00000046309542278677133530000015225170724740148608_"  style="overflow:visible;"/>
		</clipPath>
		<path style="clip-path:url(#SVGID_00000057835215436251534590000011435982415509432454_);fill:#2996C1;" d="M24.3,20.1
			c5.6,0,10.1-4.5,10.1-10.1C34.3,4.5,29.8,0,24.3,0S14.2,4.5,14.2,10.1C14.2,15.6,18.7,20.1,24.3,20.1"/>
	</g>
	<g>
		<defs>
			<rect id="SVGID_00000044865396327742845780000015092634742556209046_" width="46.8" height="120.6"/>
		</defs>
		<clipPath id="SVGID_00000118399114347897172620000017342417991415245743_">
			<use xlink:href="#SVGID_00000044865396327742845780000015092634742556209046_"  style="overflow:visible;"/>
		</clipPath>
		<path style="clip-path:url(#SVGID_00000118399114347897172620000017342417991415245743_);fill:#2996C1;" d="M36.7,23H10.2
			C5.3,23,0,28.3,0,33.2V67c0,2.4,2,4.4,4.4,4.4s4.4-2,4.4-4.4V39.2h2v75.6c0,3.2,2.6,5.8,5.8,5.8s5.8-2.6,5.8-5.8V70.9h1.9v43.8
			c0,3.2,2.6,5.8,5.8,5.8s5.8-2.6,5.8-5.8V39.2h2V67c0,2.4,2,4.4,4.4,4.4s4.4-2,4.4-4.4V33.2C46.8,28.3,41.5,23,36.7,23"/>
	</g>
</g>
</svg>
