<?xml version="1.0" encoding="UTF-8"?>
<svg id="_レイヤー_1" data-name="レイヤー_1" xmlns="http://www.w3.org/2000/svg" width="1920" height="652" version="1.1" viewBox="0 0 1920 652">
  <!-- Generator: Adobe Illustrator 29.2.1, SVG Export Plug-In . SVG Version: 2.1.0 Build 116)  -->
  <g id="Eke4X2.tif">
    <g>
      <path d="M157.585,102.482h103.982c6.612,40.994,13.225,81.993,19.725,122.295,6.504-40.299,13.117-81.273,19.736-122.28h103.989v104.011c-2.514.414-5.022.831-7.531,1.239-9.382,1.526-18.765,3.04-28.146,4.575-9.3,1.522-18.594,3.076-27.895,4.592-9.545,1.555-19.088,3.118-28.644,4.607-9.027,1.407-18.1,2.548-27.091,4.153-4.541.811-8.842-.085-13.21-.705-7.905-1.122-15.793-2.363-23.681-3.601-8.944-1.404-17.883-2.843-26.82-4.299-9.3-1.515-18.593-3.075-27.891-4.602-9.299-1.527-18.601-3.04-27.902-4.554-2.437-.397-4.876-.791-7.319-1.145-.912-.132-1.403-.35-1.402-1.499.039-33.857.032-67.715.034-101.572,0-.365.037-.729.064-1.214Z" fill="#fff"/>
      <path d="M281.518,233.281c-.344,1.593-.77,3.174-1.019,4.782-1.585,10.244-3.089,20.5-4.7,30.74-1.963,12.473-3.987,24.937-6.02,37.399-1.509,9.254-3.09,18.496-4.608,27.748-1.192,7.264-2.356,14.533-3.482,21.808-.132.851-.46,1.159-1.262,1.097-.287-.022-.577-.001-.866-.001-33.319,0-66.639,0-99.958,0-.371,0-.743-.019-1.113-.002-.676.032-.999-.256-.943-.951.023-.287,0-.577,0-.866,0-33.487,0-66.975,0-100.462,0-1.706.007-1.674,1.695-1.949,9.903-1.61,19.803-3.236,29.704-4.856,9.253-1.513,18.507-3.026,27.761-4.537,9.457-1.545,18.907-3.131,28.372-4.619,9.465-1.488,18.945-2.878,28.419-4.308,2.481-.375,4.963-.745,7.446-1.103.172-.025.361.07.543.11l.029-.029Z" fill="#fff"/>
      <path d="M281.489,233.31c3.503.464,7.013.881,10.508,1.403,7.809,1.167,15.614,2.367,23.415,3.59,7.434,1.166,14.863,2.366,22.291,3.574,7.792,1.267,15.58,2.561,23.37,3.844,8.276,1.363,16.549,2.738,24.827,4.088,5.926.966,11.853,1.923,17.789,2.827,1.009.154,1.382.499,1.381,1.557-.024,33.731-.024,67.462,0,101.194,0,1.124-.342,1.487-1.478,1.486-33.728-.024-67.456-.025-101.184.002-1.065,0-1.403-.386-1.56-1.378-1.339-8.489-2.718-16.973-4.099-25.455-1.428-8.768-2.875-17.532-4.311-26.298-1.443-8.807-2.905-17.61-4.317-26.422-1.314-8.204-2.586-16.414-3.85-24.625-.901-5.854-1.763-11.714-2.629-17.573-.09-.607-.084-1.228-.123-1.842,0,0-.029.029-.029.029Z" fill="#fff"/>
      <path d="M272.363,463.58h-14v-47.588c-.099-.016-.198-.033-.297-.049-.855,2.463-1.714,4.925-2.566,7.39-4.475,12.951-8.96,25.899-13.4,38.863-.374,1.091-.858,1.523-2.066,1.48-2.924-.104-5.855-.074-8.781-.01-.935.02-1.364-.262-1.675-1.158-5.236-15.083-10.507-30.154-15.772-45.227-.12-.344-.253-.684-.553-1.014v47.292h-14.042v-67.991c.358-.021.721-.06,1.084-.061,6.267-.004,12.535.018,18.802-.025.91-.006,1.267.312,1.547,1.141,4.952,14.658,9.935,29.306,14.914,43.955.166.488.369.964.672,1.749.398-1.204.707-2.116,1.002-3.032,4.564-14.18,9.135-28.358,13.669-42.548.295-.924.661-1.282,1.695-1.272,6.143.06,12.287.029,18.43.029h1.335v68.076Z" fill="#fff"/>
      <path d="M402.75,431.382c.138.113.219.227.326.262,5.384,1.76,7.899,5.889,8.761,11.11.594,3.604.707,7.288,1.018,10.938.288,3.369.569,6.736,2.44,9.857-.413.037-.714.088-1.015.088-4.289.005-8.578-.027-12.866.028-.892.011-1.298-.309-1.413-1.113-.492-3.415-.981-6.831-1.457-10.249-.312-2.243-.452-4.521-.925-6.729-1.267-5.918-3.694-8.188-9.678-8.488-5.301-.265-10.627-.056-16.102-.056v26.513h-15.023v-67.982c.4-.019.835-.057,1.269-.057,11.835-.003,23.67-.048,35.505.014,7.174.038,13.25,2.59,17.033,8.917,4.008,6.705,3.674,13.674.054,20.49-1.312,2.471-3.465,4.158-5.921,5.45-.651.342-1.315.658-2.007,1.004ZM371.846,426.199c.342.028.621.071.899.071,5.4.004,10.802.047,16.201-.029,1.338-.019,2.709-.301,3.997-.686,2.709-.809,4.506-2.677,4.971-5.452.329-1.96.382-4.025.178-6.004-.356-3.448-2.436-5.596-5.799-6.384-1.271-.298-2.601-.461-3.906-.475-5.07-.053-10.141-.022-15.212-.022-.436,0-.872,0-1.33,0v18.98Z" fill="#fff"/>
      <path d="M285.582,395.567h15.013v1.507c0,13.771-.018,27.541.023,41.312.005,1.72.188,3.464.516,5.153.902,4.641,4.354,7.86,9.298,8.701,3.237.55,6.494.491,9.704-.241,4.734-1.08,7.372-4.132,8.105-9.401.238-1.708.375-3.445.379-5.169.03-13.4.017-26.799.017-40.199,0-.524,0-1.049,0-1.649h15.013c0,.524,0,.973,0,1.421,0,13.317.075,26.635-.051,39.951-.033,3.474-.356,7.02-1.137,10.397-1.733,7.49-6.491,12.635-13.637,15.295-9.368,3.486-18.92,3.495-28.311.144-8.784-3.134-13.323-9.829-14.525-18.901-.291-2.197-.383-4.435-.389-6.654-.035-13.317-.017-26.634-.017-39.951v-1.715Z" fill="#fff"/>
      <path d="M486.768,463.64c-5.061,0-9.965.023-14.867-.048-.357-.005-.875-.635-1.03-1.076-1.445-4.116-2.879-8.238-4.194-12.397-.398-1.258-.936-1.705-2.301-1.691-7.463.077-14.928.058-22.392.012-1.001-.006-1.42.305-1.739,1.246-1.451,4.288-3.022,8.535-4.471,12.824-.309.914-.734,1.166-1.662,1.154-4.164-.052-8.33-.023-12.495-.023h-1.377c.578-1.568,1.09-2.989,1.624-4.4,7.879-20.826,15.77-41.648,23.617-62.487.371-.984.833-1.287,1.853-1.274,4.329.056,8.66.042,12.99.007.778-.006,1.145.225,1.426.978,8.223,22.06,16.472,44.11,24.715,66.162.099.264.163.541.303,1.012ZM444.668,437.147h17.45c-2.832-8.241-5.646-16.431-8.46-24.621-.089.009-.179.018-.268.027-2.895,8.162-5.789,16.324-8.722,24.594Z" fill="#fff"/>
      <path d="M192.741,463.64c-5.091,0-9.995.02-14.898-.044-.333-.004-.819-.577-.96-.981-1.51-4.31-2.999-8.629-4.409-12.972-.297-.915-.706-1.202-1.642-1.198-7.669.034-15.337.035-23.006-.002-.899-.004-1.292.29-1.579,1.128-1.477,4.322-3.036,8.616-4.516,12.936-.278.81-.608,1.17-1.542,1.159-4.573-.056-9.147-.026-13.928-.026.163-.528.267-.942.417-1.339,8.282-21.9,16.574-43.797,24.834-65.707.313-.831.695-1.121,1.582-1.112,4.37.046,8.741.049,13.111-.002.909-.011,1.26.322,1.564,1.138,8.183,21.938,16.395,43.865,24.599,65.795.126.338.211.691.373,1.225ZM159.637,412.561c-.095.002-.191.003-.286.005-2.896,8.164-5.791,16.328-8.708,24.55h17.43c-2.839-8.263-5.637-16.409-8.436-24.555Z" fill="#fff"/>
      <path d="M146.161,535.931v-53.815h1.376c8.124,0,16.248-.021,24.372.011,3.142.012,6.263.313,9.229,1.456,4.866,1.874,7.386,5.723,7.543,11.232.147,5.14-1.844,9.024-6.439,11.476-.169.09-.317.218-.579.401.817.35,1.541.625,2.235.962,5.423,2.635,7.375,7.289,7.301,12.968-.097,7.465-4.508,12.693-12.221,14.515-2.069.489-4.23.784-6.353.806-8.536.089-17.073.037-25.609.035-.242,0-.485-.027-.856-.049ZM157.988,526.698c4.768,0,9.333.022,13.897-.019.853-.008,1.723-.193,2.551-.422,2.04-.562,3.77-1.642,4.412-3.756,1.299-4.279.371-9.822-6.248-10.292-4.753-.338-9.544-.148-14.318-.187-.066,0-.133.086-.294.197v14.48ZM158.053,503.893c1.502,0,2.897.012,4.291-.002,3.087-.032,6.185.073,9.257-.157,3.517-.263,5.461-2.511,5.519-5.934.06-3.544-1.66-5.643-5.219-6.147-1.58-.224-3.197-.226-4.799-.245-2.995-.036-5.991-.01-9.05-.01v12.495Z" fill="#fff"/>
      <path d="M322.124,482.116h1.351c7.339,0,14.678-.04,22.017.012,6.16.044,11.823,1.627,16.483,5.881,4.059,3.705,6.248,8.434,7.158,13.774,1.039,6.096.874,12.161-1.003,18.091-3.145,9.936-10.916,15.839-21.333,16.041-7.995.155-15.996.054-23.994.064-.2,0-.4-.03-.679-.052v-53.81ZM334.005,525.958c3.925,0,7.729.231,11.494-.052,6.402-.481,10.317-4.032,11.726-10.334,1.052-4.708.865-9.431-.487-14.056-1.593-5.448-5.368-8.554-10.948-9.089-3.841-.369-7.734-.188-11.604-.245-.06,0-.121.1-.18.155v33.621Z" fill="#fff"/>
      <path d="M77.121,408.18v-12.566h55.615v12.481h-20.225v55.383h-15.069v-55.298h-20.321Z" fill="#fff"/>
      <path d="M374.524,518.142h11.455c.054.465.109.906.156,1.348.334,3.15,1.856,5.576,4.701,6.941,4.51,2.165,9.177,2.171,13.777.304,2.951-1.198,4.229-3.807,3.602-6.665-.304-1.384-1.099-2.498-2.302-3.066-2.254-1.063-4.569-2.047-6.944-2.795-4.078-1.285-8.259-2.246-12.323-3.569-3.178-1.034-5.953-2.827-7.943-5.621-4.505-6.324-2.604-15.642,4.17-20.269,4.766-3.255,10.133-4.183,15.781-3.842,3.811.23,7.522.91,10.933,2.75,5.444,2.935,8.238,7.517,8.487,13.676.011.276-.031.554-.056.948-3.641,0-7.218.012-10.795-.027-.245-.003-.644-.349-.704-.6-1.234-5.117-2.845-6.802-7.864-7.341-2.161-.232-4.467-.054-6.582.456-2.65.639-4.112,2.804-4.21,5.182-.084,2.034.674,3.626,2.602,4.328,2.776,1.011,5.604,1.892,8.445,2.705,2.927.837,5.911,1.476,8.844,2.294,3.317.925,6.152,2.66,8.598,5.123,5.648,5.687,4.703,18.011-3.788,23.11-3.582,2.151-7.468,3.221-11.584,3.538-5.921.455-11.729-.028-17.074-2.856-6.339-3.354-9.408-8.728-9.381-16.053Z" fill="#fff"/>
      <path d="M198.815,482.189h11.878c0,.512,0,.986,0,1.459.013,11.051.019,22.103.055,33.154.003,1.024.131,2.061.322,3.068.729,3.851,3.459,6.649,7.416,7.079,2.501.271,5.097.141,7.6-.192,3.324-.442,5.372-2.618,6.113-5.835.421-1.83.64-3.746.651-5.624.06-10.515.029-21.031.029-31.547v-1.546h11.817c.021.437.061.873.061,1.31.003,10.846.062,21.692-.042,32.536-.024,2.487-.365,5.03-.98,7.44-1.548,6.063-5.557,10.028-11.396,12.024-6.915,2.365-13.956,2.375-20.892.142-7.389-2.379-11.331-7.733-12.317-15.331-.222-1.71-.296-3.45-.3-5.177-.027-10.474-.013-20.949-.013-31.423v-1.537Z" fill="#fff"/>
      <path d="M277.993,482.169h11.799v1.604c0,13.562.017,27.125-.028,40.687-.004,1.24.295,1.584,1.566,1.573,7.707-.065,15.416-.033,23.124-.033.45,0,.9,0,1.458,0v9.924h-37.918v-53.755Z" fill="#fff"/>
      <path d="M267.099,482.221v53.684h-11.768v-53.684h11.768Z" fill="#fff"/>
      <path d="M239.494,556.975c4.792,0,9.485-.017,14.177.01,1.395.008,2.815-.002,4.18.243,3.442.618,6.003,3.216,6.494,6.594.489,3.362-.411,7.034-3.911,8.71-.135.065-.246.18-.466.344,3.542,1.469,3.905,4.539,4.18,7.681.184,2.11.453,4.212.701,6.476-1.719,0-3.718.029-5.713-.037-.248-.008-.641-.497-.69-.807-.271-1.704-.454-3.421-.672-5.134-.073-.571-.137-1.145-.244-1.711-.55-2.897-1.893-4.007-4.849-4.016-2.135-.006-4.27-.001-6.522-.001v11.633h-6.665v-29.986ZM246.172,570.539c2.693,0,5.243.075,7.786-.021,2.462-.093,3.71-1.421,3.822-3.797.128-2.697-.893-4.264-3.33-4.443-2.728-.201-5.482-.046-8.278-.046v8.307Z" fill="#fff"/>
      <path d="M233.678,566.858h-5.953c-.93-1.322-1.551-2.707-2.595-3.592-2.786-2.36-7.594-1.742-9.901,1.143-2.393,2.991-2.558,6.508-2.15,10.106.101.889.356,1.783.681,2.62,1.69,4.343,6.264,6.24,10.577,4.428,2.221-.933,3.601-3.06,3.682-5.803h-6.443v-4.876h12.532v16.077h-4.205c-.219-1.006-.428-1.967-.637-2.926-.112.008-.227-.018-.259.023-4.251,5.313-12.591,4.13-16.781,1.042-3.619-2.667-5.405-6.375-5.88-10.726-.449-4.106.153-8.056,2.383-11.643,4.485-7.216,15.577-8.748,21.57-2.979,1.98,1.906,3.09,4.228,3.38,7.105Z" fill="#fff"/>
      <path d="M283.263,587.702c-8.381-.002-14.142-5.54-14.735-14.243-.287-4.224.494-8.242,3.115-11.665,3.86-5.041,9.163-6.372,15.113-5.16,5.999,1.222,9.389,5.278,10.806,11.075.745,3.047.704,6.131-.09,9.171-1.785,6.837-7.045,10.823-14.211,10.821ZM291.549,572.243c-.252-1.562-.368-2.968-.717-4.312-.996-3.834-3.716-6.004-7.416-6.046-3.868-.044-6.517,1.959-7.662,5.877-.852,2.914-.876,5.849.054,8.757,1.17,3.661,3.856,5.673,7.493,5.656,3.595-.017,6.269-1.988,7.378-5.611.441-1.441.607-2.965.872-4.32Z" fill="#fff"/>
      <path d="M302.327,557.043h6.682c0,.509,0,.953,0,1.396,0,5.567.112,11.136-.029,16.7-.168,6.653,3.99,7.621,8.543,6.777,2.505-.464,3.798-2.403,3.81-5.585.022-5.938.007-11.876.007-17.814,0-.451,0-.902,0-1.447h6.612c.022.339.065.695.066,1.051.004,6.02.036,12.041-.023,18.061-.013,1.344-.204,2.727-.57,4.019-1.169,4.136-4.193,6.279-8.215,7.13-2.978.63-5.988.577-8.947-.189-4.536-1.175-7.261-4.357-7.731-9.007-.124-1.227-.191-2.465-.196-3.699-.021-5.319-.009-10.639-.009-15.958,0-.447,0-.893,0-1.435Z" fill="#fff"/>
      <path d="M333.724,557.203c5.487,0,10.857-.297,16.178.089,4.744.344,7.672,4.244,7.689,9.196.018,5.203-2.81,8.775-7.642,9.549-1.212.194-2.459.208-3.691.231-1.926.036-3.854.01-5.887.01v10.676h-6.647v-29.75ZM340.44,562.392v8.475c2.505,0,4.937.182,7.328-.052,2.318-.226,3.401-1.812,3.385-4.236-.016-2.346-1.117-3.925-3.365-4.137-2.395-.225-4.827-.051-7.348-.051Z" fill="#fff"/>
    </g>
  </g>
  <g>
    <path d="M639.23,294.507v-1.295c0-16.193,7.281-29.366,27.414-44.032,13.127-9.593,17.102-12.911,17.102-21.034,0-8.062-3.912-12.595-11.74-12.595-9.112,0-12.396,5.58-13.679,13.674h-19.526c1.34-16.045,11.839-29.417,33.205-29.417,23.9,0,32.081,14.231,32.081,28.162,0,13.546-5.829,20.094-22.948,32.112-11.471,8.056-16.077,13.352-17.659,17.545h44.051l-2.517,16.88h-65.783Z" fill="#fff"/>
    <path d="M786.144,247.423c0,25.573-8.125,48.78-35.738,48.78-27.28,0-35.723-22.438-35.723-48.197,0-25.494,9.364-48.198,36.146-48.198,25.929,0,35.314,21.211,35.314,47.615ZM735.538,247.773c0,17.097,1.95,32.313,15.115,32.313,12.844,0,14.527-14.228,14.527-32.539,0-18.059-2.182-31.624-14.335-31.624-11.881,0-15.308,11.712-15.308,31.85Z" fill="#fff"/>
    <path d="M795.128,294.507v-1.295c0-16.193,7.281-29.366,27.414-44.032,13.127-9.593,17.102-12.911,17.102-21.034,0-8.062-3.912-12.595-11.74-12.595-9.112,0-12.396,5.58-13.679,13.674h-19.526c1.34-16.045,11.839-29.417,33.205-29.417,23.9,0,32.081,14.231,32.081,28.162,0,13.546-5.829,20.094-22.948,32.112-11.471,8.056-16.076,13.352-17.659,17.545h44.051l-2.517,16.88h-65.783Z" fill="#fff"/>
    <path d="M918.749,224.143c-1.142-4.589-3.792-8.981-11.888-8.981-12.458,0-15.708,11.701-16.257,24.208,3.924-4.787,10.511-8.613,21.07-8.613,17.039,0,29.122,12.557,29.122,30.847,0,19.856-12.705,34.601-34.145,34.601-26.975,0-35.965-20.777-35.965-47.05,0-24.208,8.571-49.346,37.079-49.346,20.207,0,29.627,12.653,30.543,24.335h-19.561ZM920.58,263.271c0-8.836-3.278-16.771-14.448-16.771-9.038,0-14.346,5.279-14.346,16.059,0,7.525,3.602,17.546,14.386,17.546,9.857,0,14.408-7.421,14.408-16.833Z" fill="#fff"/>
    <path d="M1013.963,226.805c3.392,0,6.431.825,9.116,2.473,2.686,1.65,4.853,3.816,6.502,6.502,1.647,2.686,2.474,5.725,2.474,9.117,0,3.299-.826,6.313-2.474,9.046-1.649,2.734-3.816,4.925-6.502,6.572-2.686,1.649-5.725,2.474-9.116,2.474-3.3,0-6.314-.824-9.046-2.474-2.734-1.647-4.925-3.838-6.572-6.572-1.65-2.732-2.474-5.747-2.474-9.046,0-3.393.823-6.432,2.474-9.117,1.647-2.686,3.838-4.852,6.572-6.502,2.731-1.647,5.746-2.473,9.046-2.473Z" fill="#fff"/>
    <path d="M1087.563,294.507v-1.295c0-16.193,7.281-29.366,27.414-44.032,13.127-9.593,17.102-12.911,17.102-21.034,0-8.062-3.912-12.595-11.74-12.595-9.112,0-12.396,5.58-13.679,13.674h-19.526c1.34-16.045,11.839-29.417,33.205-29.417,23.9,0,32.081,14.231,32.081,28.162,0,13.546-5.829,20.094-22.948,32.112-11.471,8.056-16.076,13.352-17.659,17.545h44.051l-2.517,16.88h-65.783Z" fill="#fff"/>
    <path d="M1234.477,247.423c0,25.573-8.125,48.78-35.738,48.78-27.28,0-35.723-22.438-35.723-48.197,0-25.494,9.364-48.198,36.146-48.198,25.929,0,35.314,21.211,35.314,47.615ZM1183.871,247.773c0,17.097,1.95,32.313,15.115,32.313,12.844,0,14.527-14.228,14.527-32.539,0-18.059-2.182-31.624-14.335-31.624-11.881,0-15.308,11.712-15.308,31.85Z" fill="#fff"/>
    <path d="M1243.461,294.507v-1.295c0-16.193,7.281-29.366,27.414-44.032,13.127-9.593,17.102-12.911,17.102-21.034,0-8.062-3.912-12.595-11.74-12.595-9.112,0-12.396,5.58-13.679,13.674h-19.526c1.34-16.045,11.839-29.417,33.205-29.417,23.9,0,32.081,14.231,32.081,28.162,0,13.546-5.829,20.094-22.948,32.112-11.471,8.056-16.077,13.352-17.659,17.545h44.051l-2.517,16.88h-65.783Z" fill="#fff"/>
    <path d="M1379.908,201.504v15.014c-14.738,20.855-29.166,51.033-32.812,77.989h-20.805c3.669-27.358,20.33-60.153,33.01-76.372h-43.79v-16.631h64.397Z" fill="#fff"/>
  </g>
  <g>
    <path d="M669.537,440.328v41.129h-21.712v-102.759h45.152c22.405,0,34.467,12.342,34.467,28.212,0,13.79-7.506,21.254-14.933,24.312,5.089,1.878,12.769,7.178,12.769,25.57v5.074c0,6.909.06,14.778,1.473,19.59h-21.057c-1.807-4.472-2.146-12.162-2.146-23.073v-1.502c0-11.236-2.837-16.554-19.398-16.554h-14.614ZM669.537,422.642h18.629c12.166,0,16.856-4.625,16.856-13.221,0-8.356-5.46-13.036-16.326-13.036h-19.159v26.257Z" fill="#fff"/>
    <path d="M812.278,437.139h-49.143v26.106h54.21l-2.636,18.212h-73.138v-102.759h72.863v18.212h-51.3v22.017h49.143v18.212Z" fill="#fff"/>
    <path d="M915.987,449.78c-4.131,19.168-18.584,33.132-44.316,33.132-32.583,0-47.988-23.061-47.988-52.292,0-28.17,15.895-53.412,49.056-53.412,27.361,0,40.626,16.062,43.136,33.238h-22.22c-2.145-7.921-7.658-15.814-21.626-15.814-18.324,0-25.399,16.482-25.399,35.184,0,17.371,6.14,35.672,25.996,35.672,14.498,0,19.075-9.712,21.012-15.707h22.351Z" fill="#fff"/>
    <path d="M951.674,440.328v41.129h-21.712v-102.759h45.152c22.405,0,34.467,12.342,34.467,28.212,0,13.79-7.506,21.254-14.933,24.312,5.089,1.878,12.769,7.178,12.769,25.57v5.074c0,6.909.06,14.778,1.473,19.59h-21.057c-1.807-4.472-2.146-12.162-2.146-23.073v-1.502c0-11.236-2.837-16.554-19.398-16.554h-14.614ZM951.674,422.642h18.629c12.166,0,16.856-4.625,16.856-13.221,0-8.356-5.46-13.036-16.326-13.036h-19.159v26.257Z" fill="#fff"/>
    <path d="M1044.579,378.698v61.228c0,19.72,10.14,25.562,21.222,25.562,12.715,0,20.695-6.909,20.695-25.562v-61.228h22.237v60.125c0,35.134-20.569,44.089-43.231,44.089-23.192,0-43.178-9.342-43.178-43.666v-60.548h22.255Z" fill="#fff"/>
    <path d="M1149.064,378.698v102.759h-22.219v-102.759h22.219Z" fill="#fff"/>
    <path d="M1189.103,396.91h-31.221v-18.212h84.565v18.212h-31.107v84.547h-22.237v-84.547Z" fill="#fff"/>
    <path d="M1273.515,378.698v102.759h-22.219v-102.759h22.219Z" fill="#fff"/>
    <path d="M1293.026,481.457v-102.759h27.538c12.834,23.071,36.558,64.686,41.278,75.882h.28c-1.156-10.724-1.139-28.568-1.139-45.429v-30.453h20.138v102.759h-26.118c-11.04-20.078-37.328-67.882-42.418-79.752h-.28c.745,8.988.989,30.096.989,48.5v31.252h-20.269Z" fill="#fff"/>
    <path d="M1490.043,481.457h-16.286c-.858-3.16-1.419-6.689-1.699-10.133-5.694,7.679-15.729,11.85-30.011,11.85-29.827,0-46.491-22.541-46.491-51.809,0-30.889,17.97-54.157,50.361-54.157,26.442,0,42.003,14.924,44.495,32.445h-22.22c-2.109-6.884-7.539-15.021-22.573-15.021-21.098,0-27.117,17.646-27.117,35.762,0,17.681,6.885,35.094,27.255,35.094,18.998,0,22.496-13.187,22.496-22.38v-.931h-22.532v-18.211h44.322v57.491Z" fill="#fff"/>
    <path d="M1553.843,451.337c2.343,10.318,9.747,14.842,21.639,14.842s16.935-4.684,16.935-12.206c0-8.363-4.954-11.993-22.528-16.082-27.963-6.564-34.878-16.737-34.878-30.609,0-17.911,13.397-30.073,37.723-30.073,27.283,0,38.152,14.666,39.625,29.697h-22.386c-1.073-6.324-4.571-13.191-17.817-13.191-9.019,0-14.46,3.725-14.46,11.021,0,7.146,4.363,10.044,20.966,13.895,29.888,7.041,36.44,18.16,36.44,32.647,0,18.764-14.196,31.636-41.36,31.636-26.083,0-39.821-12.842-42.283-31.575h22.386Z" fill="#fff"/>
    <path d="M1650.737,378.698v102.759h-22.219v-102.759h22.219Z" fill="#fff"/>
    <path d="M1690.776,396.91h-31.221v-18.212h84.565v18.212h-31.107v84.547h-22.237v-84.547Z" fill="#fff"/>
    <path d="M1823.675,437.139h-49.143v26.106h54.21l-2.636,18.212h-73.138v-102.759h72.863v18.212h-51.3v22.017h49.143v18.212Z" fill="#fff"/>
  </g>
</svg>