<svg xmlns="http://www.w3.org/2000/svg" width="19.444" height="15.792" viewBox="0 0 19.444 15.792">
  <path id="twitter_white" d="M17.446,52.018c.012.173.012.345.012.518A11.261,11.261,0,0,1,6.12,63.875,11.262,11.262,0,0,1,0,62.086a8.244,8.244,0,0,0,.962.049,7.981,7.981,0,0,0,4.947-1.7,3.992,3.992,0,0,1-3.726-2.764,5.025,5.025,0,0,0,.753.062,4.215,4.215,0,0,0,1.049-.136,3.986,3.986,0,0,1-3.2-3.911v-.049a4.013,4.013,0,0,0,1.8.506,3.991,3.991,0,0,1-1.234-5.33,11.328,11.328,0,0,0,8.217,4.17,4.5,4.5,0,0,1-.1-.913,3.989,3.989,0,0,1,6.9-2.727,7.846,7.846,0,0,0,2.529-.962,3.974,3.974,0,0,1-1.752,2.2,7.989,7.989,0,0,0,2.295-.617A8.566,8.566,0,0,1,17.446,52.018Z" transform="translate(0 -48.082)" fill="#242424"/>
</svg>
