<svg xmlns="http://www.w3.org/2000/svg" width="19.44" height="18.523" viewBox="0 0 19.44 18.523">
  <g id="グループ_64" data-name="グループ 64" transform="translate(-53.279 -58.346)">
    <path id="パス_97" data-name="パス 97" d="M72.719,66.234c0-4.349-4.36-7.888-9.72-7.888s-9.72,3.539-9.72,7.888c0,3.9,3.458,7.165,8.129,7.782.316.068.747.209.856.479a2,2,0,0,1,.031.879s-.114.686-.139.832c-.042.246-.2.961.842.524a31.391,31.391,0,0,0,7.637-5.643h0a7.019,7.019,0,0,0,2.083-4.853" fill="#242424"/>
    <path id="パス_98" data-name="パス 98" d="M202.068,126.469h-2.731a.186.186,0,0,1-.186-.186v-4.242a.186.186,0,0,1,.186-.186h2.731a.186.186,0,0,1,.186.186v.689a.186.186,0,0,1-.186.186h-1.856v.716h1.856a.186.186,0,0,1,.186.186v.689a.186.186,0,0,1-.186.186h-1.856v.716h1.856a.186.186,0,0,1,.186.186v.689a.186.186,0,0,1-.186.186" transform="translate(-132.583 -57.724)" fill="#fff"/>
    <path id="パス_99" data-name="パス 99" d="M91.194,126.469a.186.186,0,0,0,.186-.186v-.689a.186.186,0,0,0-.186-.186H89.338v-3.367a.186.186,0,0,0-.186-.186h-.689a.186.186,0,0,0-.186.186v4.242a.186.186,0,0,0,.186.186Z" transform="translate(-31.81 -57.724)" fill="#fff"/>
    <path id="パス_100" data-name="パス 100" d="M129.6,121.855h-.689a.186.186,0,0,0-.186.186v4.242a.186.186,0,0,0,.186.185h.689a.186.186,0,0,0,.186-.185v-4.242a.186.186,0,0,0-.186-.186" transform="translate(-68.577 -57.723)" fill="#fff"/>
    <path id="パス_101" data-name="パス 101" d="M151.493,121.855H150.8a.186.186,0,0,0-.186.186v2.52l-1.941-2.621-.015-.019h0l-.011-.012,0,0-.01-.009-.005,0-.01-.007-.006,0-.01-.006-.006,0-.011,0-.006,0-.011,0-.007,0-.011,0h-.72a.186.186,0,0,0-.186.186v4.242a.186.186,0,0,0,.186.185h.689a.186.186,0,0,0,.186-.185v-2.52l1.943,2.624a.188.188,0,0,0,.048.047h0l.012.007.005,0,.009,0,.009,0,.006,0,.013,0h0a.189.189,0,0,0,.048.006h.686a.186.186,0,0,0,.186-.185v-4.242a.186.186,0,0,0-.186-.186" transform="translate(-85.772 -57.723)" fill="#fff"/>
  </g>
</svg>
