<svg id="instagram" xmlns="http://www.w3.org/2000/svg" width="19.444" height="19.44" viewBox="0 0 19.444 19.44">
  <path id="パス_653" data-name="パス 653" d="M13.818,5.852c2.6,0,2.9.012,3.927.058a5.3,5.3,0,0,1,1.806.336,3.016,3.016,0,0,1,1.119.725A2.969,2.969,0,0,1,21.4,8.089a5.4,5.4,0,0,1,.336,1.806c.046,1.026.058,1.331.058,3.927s-.012,2.9-.058,3.927a5.3,5.3,0,0,1-.336,1.806,3.016,3.016,0,0,1-.725,1.119,2.969,2.969,0,0,1-1.119.725,5.4,5.4,0,0,1-1.806.336c-1.026.046-1.331.058-3.927.058s-2.9-.012-3.927-.058A5.3,5.3,0,0,1,8.085,21.4a3.016,3.016,0,0,1-1.119-.725,2.969,2.969,0,0,1-.725-1.119,5.4,5.4,0,0,1-.336-1.806c-.046-1.026-.058-1.331-.058-3.927s.012-2.9.058-3.927a5.3,5.3,0,0,1,.336-1.806A3.016,3.016,0,0,1,6.967,6.97a2.969,2.969,0,0,1,1.119-.725,5.4,5.4,0,0,1,1.806-.336c1.026-.05,1.331-.058,3.927-.058m0-1.752c-2.639,0-2.971.012-4.008.058a7.124,7.124,0,0,0-2.357.451A4.737,4.737,0,0,0,5.732,5.732,4.821,4.821,0,0,0,4.609,7.453a7.128,7.128,0,0,0-.451,2.361c-.046,1.034-.058,1.366-.058,4s.012,2.971.058,4.008a7.17,7.17,0,0,0,.451,2.361,4.737,4.737,0,0,0,1.123,1.721,4.821,4.821,0,0,0,1.721,1.123,7.128,7.128,0,0,0,2.361.451c1.038.046,1.366.058,4.008.058s2.971-.012,4.008-.058a7.17,7.17,0,0,0,2.361-.451,4.737,4.737,0,0,0,1.721-1.123,4.821,4.821,0,0,0,1.123-1.721,7.128,7.128,0,0,0,.451-2.361c.046-1.038.058-1.366.058-4.008s-.012-2.971-.058-4.008a7.17,7.17,0,0,0-.451-2.361,4.737,4.737,0,0,0-1.123-1.721,4.821,4.821,0,0,0-1.721-1.123,7.128,7.128,0,0,0-2.361-.451c-1.042-.042-1.373-.054-4.012-.054Z" transform="translate(-4.1 -4.1)" fill="#242424"/>
  <path id="パス_654" data-name="パス 654" d="M131.592,126.6a4.992,4.992,0,1,0,4.992,4.992A4.993,4.993,0,0,0,131.592,126.6Zm0,8.233a3.241,3.241,0,1,1,3.241-3.241A3.24,3.24,0,0,1,131.592,134.833Z" transform="translate(-121.874 -121.874)" fill="#242424"/>
  <circle id="楕円形_2" data-name="楕円形 2" cx="1.165" cy="1.165" r="1.165" transform="translate(13.742 3.364)" fill="#242424"/>
</svg>
